<?xml version="1.0" encoding="utf-8"?>
<!-- Generator: Adobe Illustrator 16.0.0, SVG Export Plug-In . SVG Version: 6.00 Build 0)  -->
<!DOCTYPE svg PUBLIC "-//W3C//DTD SVG 1.1//EN" "http://www.w3.org/Graphics/SVG/1.1/DTD/svg11.dtd">
<svg version="1.1" id="logo" xmlns="http://www.w3.org/2000/svg" xmlns:xlink="http://www.w3.org/1999/xlink" x="0px" y="0px"
	 width="229.693px" height="184.641px" viewBox="0 0 229.693 184.641" style="enable-background:new 0 0 229.693 184.641;"
	 xml:space="preserve">
<style type="text/css">
<![CDATA[
	.st0{fill:#454036;}
	.st1{fill:#454036;}
]]>
</style>
<g id="head">
	<polygon id="beard" class="st1" points="86.128,67.243 90.872,89.751 103.354,102.765 115.176,107.994 127.908,104.582 
		140.186,90.715 147.32,68.662 132.229,87.532 125.408,95.717 119.041,95.49 117.222,90.487 114.721,95.49 109.265,95.49 
		99.435,87.304 	"/>
	<polygon id="mustache" class="st1" points="102.217,83.894 109.038,76.847 121.541,77.074 129.728,82.984 116.313,78.666 	"/>
	<polygon id="hear" class="st1" points="84.269,86.15 80.391,83.667 71.373,57.13 71.75,29.101 86.434,7.27 108.479,0 125.635,0 
		148.369,10.685 163.604,31.83 165.877,53.428 153.6,83.213 149.279,89.35 143.877,89.438 141.361,86.643 148.024,56.194 
		134.934,42.351 118.586,36.149 94.032,40.015 83.8,57.976 88.057,81.848 	"/>
</g>
<g>
	<path class="st0" d="M0.199,156.233v-21.326h3.376v18.482h8.086l-0.415,2.843H0.199z"/>
	<path class="st0" d="M24.694,152.857l1.096,2.014c-0.336,0.316-1.047,0.681-2.132,1.096c-1.086,0.415-2.251,0.622-3.495,0.622
		c-2.212,0-3.994-0.671-5.346-2.014c-1.353-1.342-2.029-3.356-2.029-6.042c0-1.481,0.237-2.789,0.71-3.925
		c0.474-1.135,1.086-2.019,1.836-2.651c1.541-1.263,3.155-1.896,4.843-1.896c1.688,0,3.031,0.43,4.028,1.289
		c0.997,0.859,1.496,1.91,1.496,3.154c0,1.639-0.78,2.977-2.34,4.013c-1.56,1.037-4.058,1.555-7.494,1.555
		c0,0.908,0.38,1.807,1.141,2.695c0.76,0.889,1.885,1.333,3.376,1.333C21.875,154.101,23.312,153.686,24.694,152.857z
		 M22.828,144.771c0-0.592-0.222-1.111-0.667-1.555s-1.071-0.667-1.881-0.667c-1.303,0-2.375,0.489-3.213,1.466
		c-0.839,0.978-1.269,2.256-1.289,3.835C20.478,147.851,22.828,146.825,22.828,144.771z"/>
	<path class="st0" d="M28.07,155.434l0.682-2.399c1.619,0.711,3.011,1.066,4.176,1.066c2.014,0,3.021-0.682,3.021-2.044
		c0-1.066-0.968-1.955-2.903-2.666c-0.75-0.276-1.313-0.499-1.688-0.667c-0.375-0.167-0.84-0.43-1.392-0.785
		c-1.086-0.71-1.629-1.782-1.629-3.213s0.508-2.557,1.525-3.376s2.394-1.229,4.132-1.229c1.757,0,3.268,0.296,4.532,0.889
		c0.237,0.099,0.365,0.148,0.385,0.148l-0.622,2.399c-1.442-0.632-2.725-0.948-3.851-0.948c-1.975,0-2.962,0.671-2.962,2.014
		c0,0.395,0.104,0.696,0.311,0.903c0.208,0.207,0.37,0.355,0.489,0.444s0.315,0.197,0.592,0.326
		c0.276,0.128,0.479,0.217,0.607,0.267c0.128,0.049,0.37,0.144,0.726,0.281c0.355,0.138,0.715,0.271,1.081,0.4
		c0.365,0.128,0.75,0.301,1.155,0.518c0.404,0.218,0.834,0.514,1.288,0.889c0.908,0.751,1.363,1.896,1.363,3.436
		c0,1.047-0.307,1.916-0.918,2.606c-1.086,1.264-2.902,1.896-5.45,1.896C31.021,156.589,29.472,156.204,28.07,155.434z"/>
	<path class="st0" d="M43.383,133.901l3.199-0.415v17.86c0,1.836,0.523,2.755,1.57,2.755c0.256,0,0.73-0.069,1.422-0.208
		l0.385,2.192c-0.02,0-0.104,0.029-0.251,0.089c-0.148,0.059-0.321,0.118-0.519,0.178c-0.494,0.158-1.096,0.237-1.807,0.237
		c-1.362,0-2.37-0.459-3.021-1.377c-0.652-0.918-0.978-2.187-0.978-3.806V133.901z"/>
	<path class="st0" d="M63.316,152.857l1.096,2.014c-0.336,0.316-1.047,0.681-2.132,1.096c-1.086,0.415-2.251,0.622-3.495,0.622
		c-2.212,0-3.994-0.671-5.346-2.014c-1.353-1.342-2.029-3.356-2.029-6.042c0-1.481,0.237-2.789,0.71-3.925
		c0.474-1.135,1.086-2.019,1.836-2.651c1.541-1.263,3.155-1.896,4.843-1.896c1.688,0,3.031,0.43,4.028,1.289
		c0.997,0.859,1.496,1.91,1.496,3.154c0,1.639-0.78,2.977-2.34,4.013c-1.56,1.037-4.058,1.555-7.494,1.555
		c0,0.908,0.38,1.807,1.141,2.695c0.76,0.889,1.885,1.333,3.376,1.333C60.498,154.101,61.934,153.686,63.316,152.857z
		 M61.45,144.771c0-0.592-0.222-1.111-0.667-1.555s-1.071-0.667-1.881-0.667c-1.303,0-2.375,0.489-3.213,1.466
		c-0.839,0.978-1.269,2.256-1.289,3.835C59.1,147.851,61.45,146.825,61.45,144.771z"/>
	<path class="st0" d="M69.062,159.432c1.343,0.494,2.725,0.741,4.146,0.741c1.422,0,2.522-0.326,3.303-0.978
		c0.78-0.652,1.17-1.936,1.17-3.851c-1.244,0.83-2.695,1.244-4.354,1.244s-2.952-0.558-3.88-1.673
		c-0.929-1.116-1.392-2.493-1.392-4.132v-10.159l3.199-0.415v9.982c0,2.606,1.037,3.91,3.11,3.91c1.6,0,2.705-0.444,3.317-1.333
		v-12.144l3.199-0.415v15.076c0,2.409-0.627,4.255-1.881,5.539c-1.254,1.283-3.036,1.925-5.346,1.925
		c-1.421,0-2.483-0.099-3.184-0.296s-1.214-0.351-1.54-0.459c-0.326-0.109-0.508-0.163-0.548-0.163L69.062,159.432z"/>
	<path class="st0" d="M95.63,156.233v-21.177c2.389-0.217,5.084-0.326,8.086-0.326c2.547,0,4.635,0.879,6.265,2.636
		c1.629,1.758,2.443,4.379,2.443,7.864c0,3.485-0.839,6.22-2.518,8.205c-1.679,1.984-4.246,2.977-7.701,2.977
		C98.75,156.411,96.558,156.352,95.63,156.233z M99.006,153.627c1.185,0.079,2.488,0.119,3.91,0.119
		c2.231,0,3.796-0.726,4.695-2.177c0.898-1.451,1.348-3.579,1.348-6.383c0-2.804-0.509-4.803-1.525-5.998
		c-1.017-1.195-2.434-1.792-4.25-1.792c-0.81,0-2.202,0.059-4.176,0.178V153.627z"/>
	<path class="st0" d="M129.395,140.209v12.322c0,0.71,0.084,1.165,0.252,1.362c0.167,0.198,0.548,0.296,1.14,0.296l0.119,1.866
		c-0.494,0.178-1.017,0.267-1.57,0.267c-1.205,0-2.054-0.474-2.547-1.422c-1.284,1.125-2.893,1.688-4.828,1.688
		c-3.594,0-5.391-1.935-5.391-5.805v-10.159l3.199-0.415v9.982c0,2.606,1.037,3.91,3.11,3.91c1.422,0,2.527-0.415,3.317-1.244
		v-12.232L129.395,140.209z"/>
	<path class="st0" d="M135.881,159.432c1.343,0.494,2.725,0.741,4.146,0.741c1.422,0,2.522-0.326,3.303-0.978
		c0.78-0.652,1.17-1.936,1.17-3.851c-1.244,0.83-2.695,1.244-4.354,1.244s-2.952-0.558-3.88-1.673
		c-0.929-1.116-1.392-2.493-1.392-4.132v-10.159l3.199-0.415v9.982c0,2.606,1.037,3.91,3.11,3.91c1.6,0,2.705-0.444,3.317-1.333
		v-12.144l3.199-0.415v15.076c0,2.409-0.627,4.255-1.881,5.539c-1.254,1.283-3.036,1.925-5.346,1.925
		c-1.421,0-2.483-0.099-3.184-0.296s-1.214-0.351-1.54-0.459c-0.326-0.109-0.508-0.163-0.548-0.163L135.881,159.432z"/>
	<path class="st0" d="M153.623,145.452c0-1.777-0.178-3.376-0.533-4.798l2.488-0.326l0.563,1.481
		c1.659-1.165,3.356-1.748,5.094-1.748c3.594,0,5.391,1.936,5.391,5.805v10.367h-3.199v-9.774c0-2.606-1.037-3.91-3.11-3.91
		c-1.205,0-2.37,0.425-3.495,1.274v12.41h-3.199V145.452z"/>
	<path class="st0" d="M183.922,133.486v19.045c0,0.71,0.084,1.165,0.252,1.362c0.167,0.198,0.548,0.296,1.14,0.296l0.119,1.866
		c-0.494,0.178-1.017,0.267-1.57,0.267c-1.54,0-2.458-0.701-2.754-2.103c-1.047,1.58-2.606,2.37-4.68,2.37
		c-1.777,0-3.224-0.676-4.339-2.029c-1.116-1.353-1.673-3.342-1.673-5.968c0-2.626,0.646-4.704,1.94-6.235
		c1.293-1.53,3.233-2.295,5.82-2.295c0.79,0,1.639,0.109,2.547,0.326v-6.486L183.922,133.486z M174.682,152.842
		c0.592,0.839,1.441,1.259,2.547,1.259s1.965-0.395,2.577-1.185c0.612-0.79,0.918-1.728,0.918-2.813v-7.168
		c-0.671-0.256-1.55-0.385-2.636-0.385c-1.599,0-2.715,0.514-3.347,1.541c-0.632,1.027-0.948,2.532-0.948,4.517
		S174.089,152.003,174.682,152.842z"/>
	<path class="st0" d="M201.96,141.395v11.077c0,0.691,0.079,1.151,0.237,1.377c0.158,0.227,0.542,0.341,1.155,0.341l0.119,1.866
		c-0.494,0.178-1.017,0.267-1.57,0.267c-1.54,0-2.458-0.701-2.754-2.103c-1.047,1.58-2.592,2.37-4.636,2.37
		c-2.043,0-3.564-0.76-4.561-2.281c-0.998-1.52-1.496-3.48-1.496-5.879c0-2.399,0.681-4.393,2.043-5.983
		c1.362-1.589,3.188-2.384,5.479-2.384c0.928,0,2.009,0.144,3.243,0.43C200.454,140.777,201.368,141.079,201.96,141.395z
		 M191.831,148.681c0,1.916,0.291,3.298,0.874,4.146c0.583,0.849,1.426,1.274,2.533,1.274c1.105,0,1.969-0.39,2.591-1.17
		c0.622-0.78,0.933-1.742,0.933-2.888v-7.108c-0.77-0.256-1.649-0.385-2.636-0.385c-1.5,0-2.591,0.543-3.272,1.629
		C192.171,145.265,191.831,146.766,191.831,148.681z"/>
	<path class="st0" d="M207.736,145.452c0-1.777-0.178-3.376-0.533-4.798l2.488-0.326l0.563,1.481
		c1.678-1.165,3.401-1.748,5.168-1.748c1.767,0,3.065,0.573,3.895,1.718c1.599-1.145,3.312-1.718,5.139-1.718
		c1.826,0,3.149,0.484,3.969,1.451c0.819,0.968,1.229,2.419,1.229,4.354v10.367h-3.199v-9.774c0-1.915-0.455-3.11-1.363-3.583
		c-0.395-0.217-0.898-0.326-1.51-0.326c-1.027,0-2.172,0.444-3.436,1.333c0.119,0.612,0.178,1.273,0.178,1.984v10.367h-3.199v-9.774
		c0-1.224-0.188-2.181-0.563-2.873s-1.136-1.037-2.28-1.037c-1.146,0-2.261,0.425-3.347,1.274v12.41h-3.199V145.452z"/>
</g>
<g>
	<path class="st1" d="M121.491,180.076l-2.835-12.586l2.177-0.256l2.305,11.8l2.012-8.416c0.061-0.268,0.253-0.402,0.577-0.402
		c0.323,0,0.686,0.031,1.088,0.092s0.659,0.116,0.768,0.165l2.104,8.488l2.269-11.727l2.177,0.256l-2.945,12.916
		c-0.134,0.061-0.47,0.119-1.006,0.174c-0.537,0.055-1.016,0.082-1.437,0.082c-0.42,0-0.674-0.195-0.759-0.585l-1.592-7.263
		l-1.683,7.592c-0.134,0.061-0.473,0.119-1.015,0.174c-0.543,0.055-1.028,0.082-1.455,0.082S121.564,180.466,121.491,180.076z"/>
	<path class="st1" d="M142.182,178.448l0.677,1.244c-0.208,0.195-0.646,0.42-1.317,0.677c-0.671,0.256-1.39,0.384-2.159,0.384
		c-1.366,0-2.467-0.415-3.302-1.244c-0.835-0.829-1.253-2.073-1.253-3.732c0-0.915,0.146-1.723,0.439-2.424
		c0.292-0.701,0.67-1.247,1.134-1.638c0.952-0.78,1.949-1.17,2.991-1.17c1.043,0,1.872,0.265,2.488,0.795
		c0.615,0.531,0.924,1.18,0.924,1.948c0,1.013-0.482,1.839-1.445,2.479c-0.964,0.64-2.506,0.96-4.628,0.96
		c0,0.561,0.234,1.116,0.704,1.665s1.165,0.823,2.085,0.823S141.328,178.96,142.182,178.448z M141.029,173.454
		c0-0.366-0.137-0.686-0.412-0.96s-0.662-0.412-1.162-0.412c-0.805,0-1.466,0.302-1.985,0.905c-0.519,0.604-0.784,1.394-0.796,2.369
		C139.578,175.356,141.029,174.722,141.029,173.454z"/>
	<path class="st1" d="M145.475,179.875V166.74l1.976-0.256v4.646c0.805-0.39,1.665-0.585,2.58-0.585c1.098,0,2.003,0.427,2.716,1.28
		c0.714,0.854,1.07,2.085,1.07,3.695s-0.399,2.885-1.198,3.824s-1.997,1.409-3.595,1.409c-0.598,0-1.241-0.095-1.93-0.284
		S145.865,180.082,145.475,179.875z M151.731,175.512c0-1.213-0.198-2.088-0.595-2.625c-0.396-0.537-0.96-0.805-1.692-0.805
		c-0.732,0-1.397,0.171-1.994,0.512v6.384c0.415,0.159,0.951,0.238,1.61,0.238c1,0,1.695-0.313,2.085-0.942
		C151.536,177.646,151.731,176.725,151.731,175.512z"/>
	<path class="st1" d="M163.915,166.483v11.763c0,0.439,0.052,0.72,0.155,0.841c0.104,0.122,0.338,0.183,0.705,0.183l0.073,1.152
		c-0.305,0.11-0.628,0.165-0.97,0.165c-0.951,0-1.519-0.433-1.701-1.299c-0.647,0.976-1.61,1.464-2.891,1.464
		c-1.098,0-1.991-0.418-2.68-1.253c-0.689-0.835-1.034-2.064-1.034-3.686s0.399-2.906,1.198-3.851
		c0.799-0.945,1.997-1.417,3.595-1.417c0.488,0,1.012,0.067,1.574,0.201v-4.006L163.915,166.483z M158.207,178.438
		c0.366,0.519,0.89,0.777,1.574,0.777c0.683,0,1.213-0.244,1.591-0.731s0.567-1.067,0.567-1.738v-4.427
		c-0.415-0.159-0.958-0.238-1.628-0.238c-0.988,0-1.677,0.317-2.067,0.951c-0.39,0.634-0.585,1.564-0.585,2.79
		C157.658,177.048,157.841,177.92,158.207,178.438z"/>
	<path class="st1" d="M174.068,178.448l0.677,1.244c-0.208,0.195-0.646,0.42-1.317,0.677c-0.671,0.256-1.39,0.384-2.159,0.384
		c-1.366,0-2.467-0.415-3.302-1.244c-0.835-0.829-1.253-2.073-1.253-3.732c0-0.915,0.146-1.723,0.439-2.424
		c0.292-0.701,0.67-1.247,1.134-1.638c0.952-0.78,1.949-1.17,2.991-1.17c1.043,0,1.872,0.265,2.488,0.795
		c0.615,0.531,0.924,1.18,0.924,1.948c0,1.013-0.482,1.839-1.445,2.479c-0.964,0.64-2.506,0.96-4.628,0.96
		c0,0.561,0.234,1.116,0.704,1.665s1.165,0.823,2.085,0.823S173.214,178.96,174.068,178.448z M172.916,173.454
		c0-0.366-0.137-0.686-0.412-0.96s-0.662-0.412-1.162-0.412c-0.805,0-1.466,0.302-1.985,0.905c-0.519,0.604-0.784,1.394-0.796,2.369
		C171.464,175.356,172.916,174.722,172.916,173.454z"/>
	<path class="st1" d="M176.154,180.039l0.421-1.481c1,0.439,1.859,0.658,2.579,0.658c1.244,0,1.866-0.42,1.866-1.262
		c0-0.658-0.598-1.207-1.793-1.646c-0.463-0.17-0.811-0.308-1.042-0.412c-0.232-0.104-0.519-0.265-0.86-0.484
		c-0.671-0.439-1.006-1.101-1.006-1.985c0-0.884,0.314-1.579,0.942-2.085c0.628-0.506,1.479-0.759,2.552-0.759
		c1.085,0,2.019,0.183,2.799,0.548c0.146,0.062,0.226,0.092,0.238,0.092l-0.384,1.482c-0.891-0.391-1.683-0.585-2.378-0.585
		c-1.22,0-1.83,0.415-1.83,1.244c0,0.244,0.064,0.43,0.192,0.558s0.229,0.22,0.302,0.274s0.195,0.122,0.366,0.201
		c0.171,0.08,0.296,0.134,0.375,0.165c0.08,0.031,0.229,0.089,0.448,0.174c0.22,0.085,0.442,0.168,0.668,0.247
		c0.226,0.08,0.463,0.186,0.713,0.32s0.515,0.317,0.796,0.549c0.561,0.463,0.841,1.171,0.841,2.122c0,0.646-0.189,1.183-0.567,1.61
		c-0.671,0.781-1.793,1.171-3.366,1.171C177.977,180.753,177.02,180.515,176.154,180.039z"/>
	<path class="st1" d="M186.654,166.63c0.305,0,0.561,0.095,0.769,0.284c0.207,0.189,0.311,0.473,0.311,0.851
		c0,0.793-0.415,1.189-1.244,1.189c-0.292,0-0.537-0.094-0.732-0.284c-0.195-0.189-0.292-0.466-0.292-0.832
		C185.465,167.032,185.861,166.63,186.654,166.63z M185.612,180.533v-9.641l1.976-0.256v9.897H185.612z"/>
	<path class="st1" d="M198.637,171.423v8.525c0,1.488-0.387,2.628-1.162,3.421c-0.775,0.793-1.875,1.189-3.302,1.189
		c-0.878,0-1.534-0.062-1.966-0.183c-0.433-0.122-0.75-0.217-0.952-0.284s-0.314-0.101-0.338-0.101l0.421-1.482
		c0.829,0.305,1.561,0.458,2.195,0.458c0.634,0,1.109-0.037,1.427-0.11c0.317-0.073,0.616-0.219,0.896-0.439
		c0.537-0.415,0.805-1.317,0.805-2.708v-0.292c-0.22,0.341-0.555,0.649-1.006,0.924s-0.994,0.412-1.628,0.412
		c-1.049,0-1.933-0.396-2.652-1.189c-0.72-0.792-1.08-2.009-1.08-3.649s0.39-2.945,1.171-3.915c0.78-0.97,1.958-1.454,3.531-1.454
		C196.228,170.545,197.441,170.837,198.637,171.423z M192.38,175.74c0,1.281,0.183,2.18,0.549,2.698
		c0.366,0.519,0.894,0.777,1.583,0.777s1.22-0.244,1.592-0.731c0.372-0.488,0.558-1.067,0.558-1.738v-4.427
		c-0.439-0.159-0.952-0.238-1.537-0.238c-0.988,0-1.692,0.29-2.113,0.869C192.59,173.53,192.38,174.459,192.38,175.74z"/>
	<path class="st1" d="M202.295,173.874c0-1.098-0.11-2.085-0.33-2.963l1.537-0.201l0.348,0.915c1.024-0.719,2.073-1.079,3.146-1.079
		c2.22,0,3.33,1.195,3.33,3.585v6.403h-1.976v-6.037c0-1.61-0.64-2.415-1.921-2.415c-0.744,0-1.463,0.262-2.159,0.787v7.665h-1.976
		V173.874z"/>
	<path class="st1" d="M220.022,178.448l0.677,1.244c-0.208,0.195-0.646,0.42-1.317,0.677c-0.671,0.256-1.39,0.384-2.159,0.384
		c-1.366,0-2.467-0.415-3.302-1.244c-0.835-0.829-1.253-2.073-1.253-3.732c0-0.915,0.146-1.723,0.439-2.424
		c0.292-0.701,0.67-1.247,1.134-1.638c0.952-0.78,1.949-1.17,2.991-1.17c1.043,0,1.872,0.265,2.488,0.795
		c0.615,0.531,0.924,1.18,0.924,1.948c0,1.013-0.482,1.839-1.445,2.479c-0.964,0.64-2.506,0.96-4.628,0.96
		c0,0.561,0.234,1.116,0.704,1.665s1.165,0.823,2.085,0.823S219.168,178.96,220.022,178.448z M218.869,173.454
		c0-0.366-0.137-0.686-0.412-0.96s-0.662-0.412-1.162-0.412c-0.805,0-1.466,0.302-1.985,0.905c-0.519,0.604-0.784,1.394-0.796,2.369
		C217.418,175.356,218.869,174.722,218.869,173.454z"/>
	<path class="st1" d="M223.315,173.874c0-1.098-0.11-2.085-0.33-2.963l1.537-0.201l0.458,1.189c0.769-0.902,1.634-1.354,2.598-1.354
		c0.646,0,1.149,0.152,1.509,0.457c0.36,0.305,0.54,0.738,0.54,1.299c0,0.561-0.091,1.055-0.274,1.482l-1.573-0.201
		c0-0.549-0.052-0.936-0.155-1.162c-0.104-0.226-0.317-0.338-0.64-0.338c-0.324,0-0.641,0.128-0.952,0.384
		c-0.311,0.256-0.558,0.542-0.741,0.859v7.208h-1.976V173.874z"/>
</g>
<g>
</g>
<g>
</g>
<g>
</g>
<g>
</g>
<g>
</g>
<g>
</g>
</svg>
