<?xml version="1.0" encoding="utf-8"?>
<!-- Generator: Adobe Illustrator 16.0.0, SVG Export Plug-In . SVG Version: 6.00 Build 0)  -->
<!DOCTYPE svg PUBLIC "-//W3C//DTD SVG 1.1//EN" "http://www.w3.org/Graphics/SVG/1.1/DTD/svg11.dtd">
<svg version="1.1" id="logo" xmlns="http://www.w3.org/2000/svg" xmlns:xlink="http://www.w3.org/1999/xlink" x="0px" y="0px"
	 width="600px" height="337px" viewBox="660 0 600 337" enable-background="new 660 0 600 337" xml:space="preserve">
<g id="head">
	<polygon id="beard" fill="#454036" points="855.23,209.834 869.985,280.071 908.807,320.683 945.576,337 985.178,326.352 
		1023.366,283.079 1045.551,214.263 998.617,273.147 977.402,298.688 957.599,297.981 951.94,282.368 944.164,297.981 
		927.191,297.981 896.619,272.436 	"/>
	<polygon id="mustache" fill="#454036" points="905.271,261.795 926.486,239.805 965.374,240.513 990.837,258.955 949.115,245.48 	
		"/>
	<polygon id="hair" fill="#454036" points="849.448,268.834 837.388,261.086 809.338,178.276 810.511,90.812 856.182,22.687 
		924.75,0 978.106,0 1048.816,33.343 1096.202,99.327 1103.271,166.724 1065.088,259.669 1051.644,278.82 1034.845,279.094 
		1027.017,270.373 1047.744,175.355 1007.032,132.158 956.183,112.804 879.815,124.869 847.989,180.917 861.23,255.41 	"/>
</g>
</svg>
