<?xml version="1.0" encoding="utf-8"?>
<!-- Generator: Adobe Illustrator 16.0.0, SVG Export Plug-In . SVG Version: 6.00 Build 0)  -->
<!DOCTYPE svg PUBLIC "-//W3C//DTD SVG 1.1//EN" "http://www.w3.org/Graphics/SVG/1.1/DTD/svg11.dtd">
<svg version="1.1" id="logo" xmlns="http://www.w3.org/2000/svg" xmlns:xlink="http://www.w3.org/1999/xlink" x="0px" y="0px"
	 width="716.293px" height="241px" viewBox="-159.869 213.821 716.293 241"
	 style="enable-background:new -159.869 213.821 716.293 241;" xml:space="preserve">
<style type="text/css">
<![CDATA[
	.st0{fill:#C36659;}
	.st1{fill:#454036;}
]]>
</style>
<g>
	<path class="st0" d="M-159.763,364.536v-66.556h10.536v57.68h25.236l-1.295,8.872h-34.477V364.536z"/>
	<path class="st0" d="M-83.315,354l3.419,6.286c-1.048,0.984-3.268,2.125-6.654,3.419c-3.389,1.298-7.025,1.942-10.908,1.942
		c-6.902,0-12.465-2.094-16.684-6.283c-4.224-4.192-6.333-10.477-6.333-18.856c0-4.625,0.74-8.705,2.215-12.254
		c1.482-3.542,3.39-6.3,5.73-8.271c4.81-3.945,9.848-5.919,15.115-5.919c5.269,0,9.459,1.343,12.571,4.023s4.669,5.961,4.669,9.844
		c0,5.114-2.436,9.29-7.302,12.523c-4.871,3.237-12.667,4.857-23.39,4.857c0,2.83,1.186,5.638,3.561,8.406
		c2.373,2.778,5.885,4.16,10.536,4.16C-92.114,357.882-87.628,356.588-83.315,354z M-89.139,328.762
		c0-1.846-0.691-3.465-2.082-4.851c-1.389-1.387-3.343-2.082-5.87-2.082c-4.065,0-7.412,1.526-10.027,4.574
		c-2.618,3.054-3.962,7.042-4.024,11.969C-96.472,338.374-89.139,335.176-89.139,328.762z"/>
	<path class="st0" d="M-72.779,362.042l2.128-7.484c5.052,2.218,9.399,3.324,13.032,3.324c6.288,0,9.43-2.128,9.43-6.379
		c0-3.325-3.021-6.103-9.062-8.32c-2.34-0.86-4.096-1.559-5.266-2.083c-1.17-0.52-2.622-1.34-4.347-2.45
		c-3.389-2.215-5.083-5.559-5.083-10.026c0-4.465,1.584-7.979,4.76-10.536c3.173-2.555,7.471-3.835,12.896-3.835
		c5.482,0,10.201,0.924,14.144,2.773c0.742,0.309,1.141,0.464,1.202,0.464l-1.941,7.485c-4.499-1.972-8.504-2.96-12.019-2.96
		c-6.166,0-9.244,2.094-9.244,6.288c0,1.231,0.323,2.169,0.969,2.816c0.649,0.646,1.155,1.11,1.526,1.387
		c0.373,0.277,0.982,0.615,1.848,1.019c0.862,0.398,1.497,0.676,1.896,0.831c0.4,0.152,1.152,0.452,2.265,0.879
		c1.109,0.428,2.231,0.846,3.374,1.248c1.14,0.401,2.341,0.94,3.606,1.616c1.258,0.679,2.603,1.604,4.02,2.774
		c2.832,2.343,4.251,5.917,4.251,10.724c0,3.269-0.957,5.979-2.864,8.132c-3.39,3.947-9.055,5.919-17.01,5.919
		C-63.569,365.648-68.402,364.448-72.779,362.042z"/>
	<path class="st0" d="M-24.989,294.837l9.985-1.295v55.742c0,5.729,1.634,8.598,4.901,8.598c0.798,0,2.276-0.213,4.438-0.649
		l1.201,6.843c-0.061,0-0.323,0.092-0.783,0.278c-0.46,0.183-0.999,0.368-1.618,0.555c-1.542,0.492-3.423,0.739-5.642,0.739
		c-4.249,0-7.394-1.434-9.427-4.296c-2.036-2.866-3.055-6.829-3.055-11.879V294.837z"/>
	<path class="st0" d="M37.223,354l3.42,6.286c-1.049,0.984-3.267,2.125-6.653,3.419c-3.39,1.298-7.025,1.942-10.909,1.942
		c-6.903,0-12.465-2.094-16.682-6.283c-4.226-4.192-6.334-10.477-6.334-18.856c0-4.625,0.74-8.705,2.215-12.254
		c1.477-3.542,3.388-6.3,5.73-8.271c4.809-3.945,9.847-5.919,15.114-5.919c5.269,0,9.46,1.343,12.571,4.023
		c3.113,2.681,4.67,5.961,4.67,9.844c0,5.114-2.436,9.29-7.303,12.523c-4.871,3.237-12.667,4.857-23.39,4.857
		c0,2.83,1.188,5.638,3.561,8.406c2.374,2.778,5.886,4.16,10.536,4.16C28.428,357.882,32.911,356.588,37.223,354z M31.399,328.762
		c0-1.846-0.692-3.465-2.082-4.851c-1.39-1.387-3.343-2.082-5.871-2.082c-4.064,0-7.41,1.526-10.025,4.574
		c-2.619,3.054-3.963,7.042-4.024,11.969C24.066,338.374,31.399,335.176,31.399,328.762z"/>
	<path class="st0" d="M55.156,374.521c4.193,1.541,8.504,2.313,12.939,2.313c4.437,0,7.872-1.019,10.308-3.055
		c2.434-2.032,3.654-6.041,3.654-12.017c-3.883,2.591-8.412,3.882-13.59,3.882s-9.214-1.74-12.109-5.221
		c-2.899-3.484-4.343-7.78-4.343-12.896v-31.706l9.981-1.296v31.151c0,8.136,3.237,12.204,9.708,12.204
		c4.992,0,8.442-1.384,10.354-4.16v-37.899l9.98-1.296v47.053c0,7.516-1.956,13.278-5.87,17.287
		c-3.913,4.002-9.475,6.008-16.684,6.008c-4.435,0-7.75-0.312-9.938-0.925c-2.185-0.615-3.789-1.096-4.804-1.432
		c-1.017-0.342-1.587-0.509-1.712-0.509L55.156,374.521z"/>
	<path class="st0" d="M138.074,364.536v-66.094c7.457-0.675,15.866-1.016,25.235-1.016c7.952,0,14.469,2.742,19.555,8.229
		c5.083,5.485,7.622,13.665,7.622,24.54c0,10.878-2.618,19.414-7.856,25.606c-5.238,6.194-13.252,9.294-24.035,9.294
		C147.812,365.094,140.971,364.908,138.074,364.536z M148.61,356.405c3.7,0.247,7.765,0.371,12.202,0.371
		c6.965,0,11.848-2.268,14.654-6.797c2.802-4.525,4.207-11.167,4.207-19.919s-1.589-14.991-4.759-18.722
		c-3.175-3.727-7.597-5.592-13.264-5.592c-2.53,0-6.872,0.187-13.036,0.558v50.101H148.61z"/>
	<path class="st0" d="M243.455,314.527v38.456c0,2.217,0.264,3.635,0.786,4.25c0.521,0.619,1.71,0.924,3.559,0.924l0.372,5.823
		c-1.544,0.557-3.174,0.836-4.901,0.836c-3.763,0-6.411-1.48-7.951-4.44c-4.006,3.512-9.025,5.27-15.067,5.27
		c-11.217,0-16.824-6.041-16.824-18.116v-31.706l9.984-1.296v31.151c0,8.136,3.237,12.204,9.705,12.204
		c4.437,0,7.89-1.294,10.354-3.882v-38.175L243.455,314.527z"/>
	<path class="st0" d="M263.695,374.521c4.195,1.541,8.507,2.313,12.942,2.313c4.438,0,7.868-1.019,10.308-3.055
		c2.435-2.032,3.65-6.041,3.65-12.017c-3.882,2.591-8.408,3.882-13.586,3.882c-5.179,0-9.215-1.74-12.109-5.221
		c-2.902-3.484-4.347-7.78-4.347-12.896v-31.706l9.984-1.296v31.151c0,8.136,3.236,12.204,9.708,12.204
		c4.991,0,8.442-1.384,10.35-4.16v-37.899l9.984-1.296v47.053c0,7.516-1.956,13.278-5.869,17.287
		c-3.913,4.002-9.476,6.008-16.684,6.008c-4.438,0-7.751-0.312-9.94-0.925c-2.188-0.615-3.787-1.096-4.807-1.432
		c-1.017-0.342-1.583-0.509-1.709-0.509L263.695,374.521z"/>
	<path class="st0" d="M319.069,330.891c0-5.547-0.554-10.536-1.664-14.978l7.766-1.016l1.76,4.621
		c5.174-3.638,10.471-5.455,15.896-5.455c11.217,0,16.823,6.044,16.823,18.119v32.354h-9.984v-30.504
		c0-8.133-3.233-12.203-9.705-12.203c-3.759,0-7.395,1.324-10.907,3.979v38.729h-9.983V330.891z"/>
	<path class="st0" d="M413.632,293.542v59.44c0,2.217,0.26,3.635,0.785,4.25c0.521,0.619,1.712,0.924,3.561,0.924l0.372,5.823
		c-1.542,0.557-3.177,0.836-4.901,0.836c-4.807,0-7.671-2.188-8.596-6.565c-3.268,4.932-8.134,7.397-14.604,7.397
		c-5.549,0-10.065-2.109-13.545-6.333c-3.481-4.221-5.22-10.431-5.22-18.625c0-8.195,2.016-14.682,6.057-19.461
		c4.034-4.773,10.087-7.163,18.16-7.163c2.466,0,5.117,0.343,7.952,1.02v-20.244L413.632,293.542z M384.796,353.954
		c1.846,2.618,4.495,3.928,7.948,3.928c3.449,0,6.132-1.23,8.043-3.696c1.908-2.467,2.865-5.396,2.865-8.781v-22.371
		c-2.099-0.799-4.841-1.201-8.229-1.201c-4.988,0-8.474,1.604-10.445,4.81c-1.972,3.206-2.959,7.903-2.959,14.096
		C382.018,346.935,382.942,351.335,384.796,353.954z"/>
	<path class="st0" d="M469.927,318.227v34.571c0,2.158,0.246,3.593,0.739,4.298c0.494,0.71,1.692,1.064,3.606,1.064l0.372,5.823
		c-1.542,0.555-3.175,0.834-4.901,0.834c-4.806,0-7.671-2.187-8.596-6.563c-3.267,4.932-8.088,7.397-14.47,7.397
		c-6.376,0-11.122-2.371-14.234-7.12c-3.114-4.743-4.669-10.859-4.669-18.348c0-7.486,2.125-13.709,6.376-18.673
		c4.253-4.959,9.951-7.441,17.103-7.441c2.894,0,6.268,0.45,10.119,1.345C465.227,316.297,468.08,317.242,469.927,318.227z
		 M438.315,340.967c0,5.979,0.908,10.292,2.728,12.941c1.82,2.649,4.45,3.974,7.906,3.974c3.447,0,6.145-1.216,8.086-3.651
		c1.94-2.436,2.911-5.438,2.911-9.012v-22.186c-2.401-0.799-5.146-1.201-8.227-1.201c-4.683,0-8.086,1.695-10.211,5.084
		C439.375,330.305,438.315,334.99,438.315,340.967z"/>
	<path class="st0" d="M487.955,330.891c0-5.547-0.554-10.536-1.665-14.978l7.767-1.016l1.756,4.621
		c5.239-3.638,10.615-5.455,16.129-5.455c5.516,0,9.567,1.788,12.158,5.361c4.989-3.573,10.335-5.361,16.037-5.361
		c5.7,0,9.829,1.512,12.387,4.528c2.558,3.021,3.838,7.55,3.838,13.591v32.354h-9.984v-30.504c0-5.976-1.422-9.709-4.257-11.182
		c-1.23-0.676-2.8-1.019-4.711-1.019c-3.203,0-6.778,1.388-10.722,4.16c0.372,1.911,0.554,3.976,0.554,6.192v32.354h-9.984v-30.503
		c0-3.821-0.585-6.809-1.755-8.966c-1.172-2.16-3.548-3.237-7.117-3.237c-3.577,0-7.056,1.326-10.444,3.978v38.729h-9.985V330.891z"
		/>
</g>
<g>
	<path class="st1" d="M218.786,438.95l-8.848-39.28l6.794-0.801l7.196,36.828l6.277-26.264c0.189-0.839,0.789-1.257,1.803-1.257
		c1.006,0,2.139,0.099,3.394,0.287c1.254,0.191,2.059,0.362,2.396,0.516l6.568,26.492l7.079-36.603l6.796,0.801l-9.191,40.311
		c-0.42,0.189-1.468,0.369-3.137,0.543c-1.677,0.17-3.175,0.256-4.487,0.256c-1.312,0-2.104-0.609-2.369-1.824l-4.968-22.671
		l-5.254,23.696c-0.418,0.189-1.475,0.369-3.166,0.543c-1.694,0.17-3.21,0.256-4.542,0.256S219.014,440.166,218.786,438.95z"/>
	<path class="st1" d="M283.363,433.869l2.112,3.881c-0.649,0.609-2.017,1.311-4.11,2.115c-2.094,0.799-4.338,1.198-6.739,1.198
		c-4.263,0-7.7-1.295-10.306-3.883s-3.909-6.472-3.909-11.649c0-2.856,0.457-5.375,1.371-7.564c0.91-2.188,2.091-3.891,3.539-5.111
		c2.971-2.436,6.083-3.651,9.335-3.651c3.255,0,5.842,0.826,7.762,2.481c1.921,1.658,2.888,3.681,2.888,6.079
		c0,3.161-1.506,5.741-4.511,7.737c-3.01,1.999-7.821,2.996-14.444,2.996c0,1.752,0.729,3.482,2.197,5.195
		c1.467,1.714,3.635,2.568,6.506,2.568C277.927,436.262,280.696,435.468,283.363,433.869z M279.763,418.284
		c0-1.144-0.426-2.144-1.286-2.997c-0.858-0.854-2.066-1.285-3.627-1.285c-2.512,0-4.574,0.941-6.196,2.821
		c-1.618,1.888-2.442,4.353-2.482,7.395C275.235,424.218,279.763,422.24,279.763,418.284z"/>
	<path class="st1" d="M293.641,438.323V397.33l6.165-0.802v14.501c2.512-1.215,5.197-1.825,8.053-1.825
		c3.425,0,6.252,1.333,8.476,3.995c2.229,2.664,3.34,6.509,3.34,11.53c0,5.026-1.246,9.006-3.739,11.936
		c-2.493,2.933-6.232,4.398-11.219,4.398c-1.869,0-3.875-0.296-6.024-0.888C296.543,439.589,294.857,438.97,293.641,438.323z
		 M313.165,424.705c0-3.786-0.619-6.516-1.858-8.192c-1.233-1.677-2.996-2.511-5.28-2.511c-2.286,0-4.361,0.533-6.223,1.596v19.925
		c1.295,0.498,2.969,0.743,5.024,0.743c3.123,0,5.289-0.979,6.509-2.94C312.554,431.365,313.165,428.492,313.165,424.705z"/>
	<path class="st1" d="M351.189,396.526v36.715c0,1.367,0.162,2.246,0.485,2.625c0.322,0.379,1.055,0.568,2.201,0.568l0.227,3.597
		c-0.953,0.345-1.961,0.515-3.028,0.515c-2.97,0-4.739-1.353-5.31-4.053c-2.018,3.044-5.023,4.569-9.021,4.569
		c-3.427,0-6.216-1.306-8.363-3.911c-2.152-2.607-3.229-6.444-3.229-11.507s1.247-9.067,3.74-12.017
		c2.493-2.951,6.232-4.423,11.219-4.423c1.524,0,3.158,0.208,4.913,0.628V397.33L351.189,396.526z M333.376,433.836
		c1.144,1.622,2.779,2.426,4.911,2.426c2.134,0,3.787-0.761,4.967-2.281c1.18-1.518,1.77-3.33,1.77-5.422v-13.82
		c-1.294-0.492-2.989-0.739-5.08-0.739c-3.085,0-5.235,0.987-6.453,2.968c-1.215,1.978-1.826,4.88-1.826,8.705
		C331.662,429.499,332.231,432.222,333.376,433.836z"/>
	<path class="st1" d="M382.879,433.869l2.112,3.881c-0.649,0.609-2.016,1.311-4.112,2.115c-2.095,0.799-4.338,1.198-6.735,1.198
		c-4.265,0-7.702-1.295-10.308-3.883s-3.911-6.472-3.911-11.649c0-2.856,0.458-5.375,1.372-7.564
		c0.911-2.188,2.091-3.891,3.538-5.111c2.97-2.436,6.083-3.651,9.337-3.651c3.253,0,5.841,0.826,7.765,2.481
		c1.916,1.658,2.884,3.681,2.884,6.079c0,3.161-1.506,5.741-4.511,7.737c-3.009,1.999-7.82,2.996-14.443,2.996
		c0,1.752,0.73,3.482,2.195,5.195c1.467,1.714,3.637,2.568,6.507,2.568C377.44,436.262,380.211,435.468,382.879,433.869z
		 M379.282,418.284c0-1.144-0.427-2.144-1.285-2.997c-0.858-0.854-2.067-1.285-3.629-1.285c-2.511,0-4.575,0.941-6.193,2.821
		c-1.62,1.888-2.446,4.353-2.483,7.395C374.751,424.218,379.282,422.24,379.282,418.284z"/>
	<path class="st1" d="M389.388,438.836l1.312-4.624c3.121,1.371,5.803,2.054,8.049,2.054c3.884,0,5.826-1.311,5.826-3.938
		c0-2.053-1.869-3.766-5.597-5.138c-1.443-0.531-2.533-0.959-3.252-1.285c-0.726-0.324-1.622-0.827-2.684-1.511
		c-2.096-1.371-3.14-3.437-3.14-6.195s0.977-4.927,2.938-6.507c1.962-1.579,4.617-2.369,7.967-2.369
		c3.386,0,6.301,0.571,8.735,1.711c0.452,0.191,0.704,0.286,0.743,0.286l-1.2,4.626c-2.779-1.222-5.251-1.824-7.421-1.824
		c-3.808,0-5.713,1.294-5.713,3.883c0,0.758,0.201,1.341,0.601,1.74s0.716,0.686,0.941,0.854c0.229,0.17,0.609,0.381,1.144,0.627
		c0.533,0.25,0.923,0.42,1.17,0.516c0.251,0.098,0.718,0.276,1.4,0.541c0.685,0.268,1.378,0.525,2.084,0.772
		c0.704,0.249,1.443,0.582,2.225,1.001c0.781,0.416,1.606,0.99,2.483,1.712c1.754,1.444,2.625,3.654,2.625,6.622
		c0,2.019-0.588,3.694-1.77,5.026c-2.093,2.439-5.596,3.655-10.504,3.655C395.078,441.064,392.093,440.32,389.388,438.836z"/>
	<path class="st1" d="M422.157,396.986c0.952,0,1.75,0.297,2.399,0.887c0.647,0.59,0.974,1.476,0.974,2.654
		c0,2.476-1.296,3.713-3.885,3.713c-0.91,0-1.676-0.295-2.285-0.888c-0.605-0.59-0.911-1.453-0.911-2.596
		C418.445,398.241,419.683,396.986,422.157,396.986z M418.907,440.379v-30.093l6.166-0.799v30.892H418.907z"/>
	<path class="st1" d="M459.555,411.943v26.609c0,4.643-1.208,8.202-3.624,10.676c-2.42,2.476-5.853,3.71-10.308,3.71
		c-2.74,0-4.786-0.191-6.135-0.569c-1.35-0.382-2.341-0.678-2.973-0.888c-0.631-0.21-0.978-0.314-1.055-0.314l1.315-4.626
		c2.587,0.95,4.872,1.43,6.85,1.43c1.979,0,3.462-0.115,4.453-0.345c0.99-0.226,1.925-0.684,2.798-1.37
		c1.677-1.294,2.512-4.109,2.512-8.451v-0.91c-0.687,1.063-1.731,2.023-3.14,2.884c-1.406,0.859-3.102,1.286-5.079,1.286
		c-3.274,0-6.035-1.237-8.278-3.713c-2.247-2.471-3.37-6.27-3.37-11.386c0-5.12,1.217-9.192,3.653-12.22
		c2.436-3.026,6.11-4.538,11.021-4.538C452.039,409.204,455.825,410.115,459.555,411.943z M440.029,425.418
		c0,3.997,0.572,6.804,1.714,8.418c1.141,1.622,2.789,2.426,4.938,2.426c2.152,0,3.81-0.761,4.972-2.281
		c1.161-1.521,1.741-3.33,1.741-5.422v-13.82c-1.37-0.492-2.973-0.739-4.798-0.739c-3.083,0-5.279,0.905-6.597,2.712
		C440.683,418.523,440.029,421.421,440.029,425.418z"/>
	<path class="st1" d="M470.973,419.594c0-3.427-0.343-6.506-1.03-9.247l4.796-0.627l1.089,2.855
		c3.193-2.244,6.467-3.368,9.816-3.368c6.928,0,10.394,3.731,10.394,11.189v19.985h-6.166v-18.843c0-5.026-2-7.537-5.994-7.537
		c-2.323,0-4.569,0.816-6.738,2.456v23.924h-6.17v-20.788H470.973z"/>
	<path class="st1" d="M526.299,433.869l2.113,3.881c-0.648,0.609-2.019,1.311-4.111,2.115c-2.095,0.799-4.337,1.198-6.736,1.198
		c-4.263,0-7.701-1.295-10.308-3.883c-2.604-2.588-3.911-6.472-3.911-11.649c0-2.856,0.458-5.375,1.374-7.564
		c0.909-2.188,2.09-3.891,3.537-5.111c2.971-2.436,6.084-3.651,9.336-3.651c3.254,0,5.842,0.826,7.763,2.481
		c1.92,1.658,2.886,3.681,2.886,6.079c0,3.161-1.506,5.741-4.511,7.737c-3.008,1.999-7.82,2.996-14.444,2.996
		c0,1.752,0.732,3.482,2.198,5.195c1.465,1.714,3.635,2.568,6.507,2.568C520.864,436.262,523.634,435.468,526.299,433.869z
		 M522.701,418.284c0-1.144-0.428-2.144-1.287-2.997c-0.856-0.854-2.066-1.285-3.626-1.285c-2.513,0-4.576,0.941-6.194,2.821
		c-1.622,1.888-2.447,4.353-2.484,7.395C518.172,424.218,522.701,422.24,522.701,418.284z"/>
	<path class="st1" d="M536.576,419.594c0-3.427-0.344-6.506-1.029-9.247l4.797-0.627l1.432,3.709
		c2.396-2.812,5.098-4.225,8.104-4.225c2.021,0,3.588,0.473,4.709,1.427c1.126,0.95,1.687,2.304,1.687,4.053
		c0,1.75-0.283,3.292-0.854,4.627l-4.91-0.629c0-1.712-0.161-2.922-0.485-3.626c-0.321-0.706-0.986-1.054-1.996-1.054
		c-1.011,0-2.002,0.398-2.971,1.198c-0.971,0.797-1.741,1.691-2.314,2.683v22.496h-6.165v-20.785H536.576z"/>
</g>
</svg>
